<svg xmlns="http://www.w3.org/2000/svg" viewBox="0 0 833 991.59"><title>flamengo-15</title><path d="M499.5,995.86C370.54,945.51,267.14,876,195,779.38,120,679,83,549.66,83,369.58V4.26H916V369.58c0,180.08-37,309.45-112,409.8C731.86,876,628.46,945.51,499.5,995.86Z" transform="translate(-83 -4.26)"/><path d="M499.5,967.26C441.6,944.09,388.77,917,342,884.3h315.1C610.23,917,557.4,944.09,499.5,967.26ZM219.27,766.55a502.46,502.46,0,0,1-62.43-112.39H842.16a502.46,502.46,0,0,1-62.43,112.39ZM120.88,523A860.93,860.93,0,0,1,110.11,413.3H888.89A859.12,859.12,0,0,1,878.12,523ZM513.15,157.46H889.63V286.52H513.15V157.46ZM109.37,30.71H486.7V387H109.37Z" transform="translate(-83 -4.26)" fill="#cd3529"/><path d="M360.81,370.9c-9.15-2.91-20.34-27.85-19.9-39.84v-1.75a388.62,388.62,0,0,0-32.45-46.86l.05,52.74c-.65,17.76-5,29.09-17.78,35.25,10.47,1.49,26.51,3.65,36.06-10.6,2.64,6.19,20.69,15.7,34,11.06Zm32.43-117.56c3.29,7.39,5.48,20.31-14.79,36.62,24.66-3.24,35.91-12.39,36.95-24.37,1.93-22.28-5.46-22.45-.35-52.43,1.74-10.22,8-17.29,19.13-26.23-23.1,3.47-37.09,14.9-44.37,40.31L341,227.08l0-86.7h15.33A83.09,83.09,0,0,0,346.21,111H322.77c-11.81,0-17-4.61-28.46-.51,8.3,4.86,14.29,11.32,14.29,18.58v99.84c10.92,5.6,22.29,14.64,31.21,24.47Zm20.9-113,25,0c0,13.91,16,41.68,40,42.42-12-17.32-16.86-29.39-11.49-53.09,11.88-31,2.59-55.62-11.37-59.06,2.64,8.67,4.38,34-10,40.44H399.78c4.46,14.88,11,26.9,14.36,29.32Zm-113,177.81c-98.69,35.37-142.67-12.68-169.69-84-3.9-9.14-4.1-15.29-14.85-22.19,12.06-3.86,14.13-11.24,16-18.84,6.64-48.23,36.67-89.15,83.61-104v23.78C183,129.55,165,173.77,166.3,215c1.44,46.67,45,95.14,89.12,94,14.53-.35,31-2.06,45.76-13.06l-.05,22.18ZM263.63,81.37c7.19-.45,14.87-.74,23.1-.88-1.88,10.53-5.55,51.33,10.87,65.09-3.13,6.71-11.68,14.2-19.89,14-5.56-.13-7.26-2.69-10.14-6.78-1.37-2-2.69-3.95-3.94-6V81.37ZM256,250.49l-.1,50.81a39,39,0,0,1-12.06-.58,59.32,59.32,0,0,1-20.26-7.66l0-212.26c0-13.06-9.8-24.86-26.4-31.48,16.11-10.43,46.95-.78,52,10.91A99.12,99.12,0,0,1,303.6,45c36.32.37,72.11,19.7,85.66,56.68,7.15,19.51,10.67,39.48,25.15,46.84a29.55,29.55,0,0,0-9.66,8.26c-7.46,9.66-12.15,24.35-24.28,42.26a121.58,121.58,0,0,1-17.84,20.78H348.29V202.69c10.13-16.41,15.65-36.87,15.41-56.8-.36-29-22.89-73.51-74.5-76.45-14.77-.84-27.43,3.67-33.18,7.34v147c30.15,0,52.05,10.71,68.32,25,15.59,13.68,26.52,31.33,36.16,49.48,13.83,26.05,23.3,48.81,40.18,48.29,12.66-.61,18.56-6.69,24-14.63,5.63,26-14.36,36.89-26.73,37.13-13.18.27-28.84-10.87-39-25.39C343.83,322,329.09,291.24,308,271,284.4,248.38,267.79,250.45,256,250.49Zm2.89,86.18c3.48,14.07,10.32,30.83,22.31,38.33-31.09-.33-33.39-11.11-37.82-15.9-7.47,7.47-18.88,19.67-42.53,17.33,13.33-12.4,19.11-24.81,21.4-40.11,11.61,1.78,25.81,2.24,36.64.35Z" transform="translate(-83 -4.26)" fill="#fff"/></svg>